<?xml version="1.0" standalone="no"?>
<!DOCTYPE svg PUBLIC "-//W3C//DTD SVG 20010904//EN"
 "http://www.w3.org/TR/2001/REC-SVG-20010904/DTD/svg10.dtd">
<svg version="1.0" xmlns="http://www.w3.org/2000/svg"
 width="512.000000pt" height="512.000000pt" viewBox="0 0 512.000000 512.000000"
 preserveAspectRatio="xMidYMid meet">
<metadata>
Created by potrace 1.11, written by Peter Selinger 2001-2013
</metadata>
<g transform="translate(0.000000,512.000000) scale(0.100000,-0.100000)"
fill="#000000" stroke="none">
<path d="M2310 5110 c-1092 -114 -1986 -893 -2240 -1955 -53 -221 -64 -327
-64 -595 0 -269 11 -377 64 -595 225 -939 956 -1670 1895 -1895 221 -53 327
-64 595 -64 269 0 377 11 595 64 939 225 1670 956 1895 1895 53 221 64 327 64
595 0 269 -11 377 -64 595 -245 1020 -1074 1779 -2120 1940 -123 19 -494 28
-620 15z m-530 -1264 c135 1 393 9 573 19 433 23 894 17 1037 -13 345 -73 520
-220 576 -484 19 -89 14 -295 -10 -405 -88 -407 -358 -703 -753 -827 -149 -46
-256 -59 -457 -53 -208 5 -319 28 -444 91 l-72 36 -11 -27 c-14 -38 -73 -252
-93 -338 -37 -163 -48 -255 -50 -420 l-2 -170 -60 -13 c-85 -18 -399 -10 -479
12 -206 57 -337 186 -381 372 -13 54 -15 102 -11 219 10 296 78 554 380 1440
41 121 77 234 80 251 6 30 5 30 -51 42 -32 7 -67 19 -80 28 -67 47 -73 184
-10 251 20 21 21 21 46 5 23 -15 57 -17 272 -16z"/>
<path d="M2635 3533 c-23 -107 -93 -335 -224 -736 -61 -187 -111 -345 -111
-352 0 -23 71 -39 175 -40 94 0 104 2 168 34 131 66 258 234 323 430 44 133
57 226 52 373 -6 138 -26 207 -82 281 -51 67 -95 87 -197 87 l-87 0 -17 -77z"/>
</g>
</svg>
